<?xml version="1.0" encoding="UTF-8"?>
<svg id="Layer_2" data-name="Layer 2" xmlns="http://www.w3.org/2000/svg" viewBox="0 0 30.91 21.06">
  <g id="_レイヤー_1" data-name="レイヤー 1">
    <path d="M15.46,21.06c-.61,0-1.12-.21-1.55-.63-.42-.42-.63-.94-.63-1.55,0-.61.21-1.12.63-1.55.42-.42.94-.63,1.55-.63s1.12.21,1.55.63c.42.42.63.94.63,1.55s-.21,1.12-.63,1.55c-.42.42-.94.63-1.55.63ZM7.46,13.88l-1.45-1.46c1.23-1.23,2.65-2.19,4.25-2.89,1.61-.7,3.34-1.04,5.2-1.04s3.59.35,5.19,1.05c1.6.7,3.02,1.66,4.25,2.9l-1.45,1.45c-1.04-1.04-2.24-1.85-3.61-2.44s-2.83-.88-4.39-.88-3.02.29-4.39.88-2.57,1.4-3.61,2.44ZM1.45,7.87l-1.45-1.45c1.97-1.98,4.27-3.55,6.9-4.7,2.63-1.15,5.48-1.73,8.56-1.73s5.93.58,8.56,1.73c2.63,1.15,4.93,2.72,6.9,4.7l-1.45,1.45c-1.82-1.82-3.92-3.24-6.31-4.26s-4.96-1.54-7.69-1.54-5.3.51-7.69,1.54c-2.39,1.03-4.5,2.45-6.31,4.26Z" style="fill: #000; stroke-width: 0px;"/>
  </g>
</svg>