<?xml version="1.0" encoding="UTF-8"?>
<svg id="Layer_2" data-name="Layer 2" xmlns="http://www.w3.org/2000/svg" viewBox="0 0 27.24 27.24">
  <g id="_レイヤー_1" data-name="レイヤー 1">
    <g>
      <path d="M6.86.1c.25.2.32.45.32.77-.01,2.02,0,4.04,0,6.05,0,1.35-.57,2.37-1.76,3.02-.21.12-.19.27-.19.44,0,3.09,0,6.17,0,9.26,0,1.83-.03,3.66.01,5.49.02.99-.31,1.68-1.27,2.02h-.63c-1.02-.42-1.28-.81-1.28-1.92,0-4.94,0-9.88,0-14.82,0-.26-.07-.39-.3-.51-.57-.29-1-.74-1.28-1.31-.16-.32-.26-.67-.38-1.01,0-2.49,0-4.98,0-7.46h.7c.28.17.36.42.36.74-.01,1.69,0,3.38,0,5.07,0,.13,0,.25,0,.39h.95c0-.15,0-.28,0-.41,0-1.67,0-3.33,0-5,0-.33.06-.6.32-.8h.42c.26.2.32.48.32.8-.01,1.68,0,3.36,0,5.03,0,.12,0,.25,0,.38h.95v-.4c0-1.69,0-3.38,0-5.07,0-.32.08-.57.36-.74h.35c.28.17.36.42.36.74-.01,1.69,0,3.38,0,5.07,0,.13,0,.25,0,.39h.95c0-.15,0-.28,0-.41,0-1.67,0-3.33,0-5,0-.33.06-.6.32-.8h.42ZM1.22,7.41c.04.7.57,1.38,1.29,1.68.58.24.6.27.6.91,0,5.09,0,10.18,0,15.27,0,.56.15.8.51.81.37.01.55-.26.55-.81,0-5.11,0-10.23,0-15.34,0-.57.03-.61.56-.83.75-.31,1.19-.87,1.37-1.69H1.22Z" style="fill: #000; stroke: #000; stroke-miterlimit: 10; stroke-width: .2px;"/>
      <path d="M25.24,27.14c-.94-.32-1.29-.99-1.28-1.97.03-2.34,0-4.69.02-7.03,0-.27-.06-.47-.28-.64-1.21-.93-1.63-2.15-1.55-3.67.1-1.78.04-3.56.02-5.34-.05-3.55,1.35-6.35,4.27-8.39h.7v25.77c-.21.64-.63,1.06-1.27,1.27h-.63ZM26.08,1.72c-.15.13-.24.2-.32.28-1.56,1.56-2.46,3.43-2.51,5.64-.06,2.39-.02,4.79-.02,7.18,0,.49.19.91.54,1.26.31.3.6.62.92.92.24.22.34.47.34.81-.01,2.49,0,4.98,0,7.46,0,.56.18.83.54.81.35-.01.51-.26.51-.81,0-7.71,0-15.42,0-23.13v-.43Z" style="fill: #000; stroke: #000; stroke-miterlimit: 10; stroke-width: .2px;"/>
      <path d="M13.61,6.12c4.13,0,7.51,3.36,7.51,7.5,0,4.14-3.37,7.51-7.5,7.5-4.13,0-7.47-3.35-7.49-7.48-.02-4.13,3.35-7.51,7.49-7.52ZM20.06,13.62c0-3.56-2.9-6.45-6.45-6.44-3.55.01-6.42,2.88-6.43,6.43-.01,3.55,2.88,6.45,6.44,6.46,3.55,0,6.45-2.89,6.45-6.45Z" style="fill: #000; stroke: #000; stroke-miterlimit: 10; stroke-width: .2px;"/>
      <path d="M14.09,23.71c-2.41,0-4.18-.52-5.8-1.52-.35-.21-.45-.47-.31-.75.16-.31.48-.38.84-.16.99.61,2.05,1.05,3.2,1.23,3.35.52,6.18-.47,8.45-3,.09-.1.16-.2.25-.29.22-.22.51-.25.73-.08.23.19.27.48.07.75-.11.15-.23.29-.36.43-2.03,2.24-4.56,3.35-7.07,3.39Z" style="fill: #000; stroke: #000; stroke-miterlimit: 10; stroke-width: .2px;"/>
      <path d="M13.21,3.52c3.25.06,5.64,1.06,7.63,3.05.22.22.34.46.16.75-.2.32-.55.3-.9.02-.61-.51-1.19-1.07-1.87-1.47-2.71-1.58-5.52-1.69-8.4-.44-.09.04-.17.08-.26.12-.34.14-.61.07-.75-.21-.14-.28-.05-.58.29-.72.65-.27,1.29-.57,1.97-.74.84-.2,1.7-.28,2.13-.35Z" style="fill: #000; stroke: #000; stroke-miterlimit: 10; stroke-width: .2px;"/>
      <path d="M8.76,13.44c.16-1.94,1.08-3.38,2.85-4.24.34-.17.65-.07.78.21.14.29,0,.57-.36.76-1.38.69-2.11,1.8-2.21,3.34-.03.41-.22.64-.55.63-.33,0-.52-.27-.51-.7Z" style="fill: #000; stroke: #000; stroke-miterlimit: 10; stroke-width: .2px;"/>
    </g>
  </g>
</svg>