<?xml version="1.0" encoding="UTF-8"?>
<svg id="Layer_2" data-name="Layer 2" xmlns="http://www.w3.org/2000/svg" viewBox="0 0 18.58 25.63">
  <g id="_レイヤー_1" data-name="レイヤー 1">
    <g>
      <path d="M8.84,25.53c-.27-.11-.35-.32-.35-.59,0-5.17,0-10.34,0-15.52,0-.43.15-.59.58-.59,2.9,0,5.81,0,8.71,0,.48,0,.62.14.62.65,0,3.48,0,6.97,0,10.45,0,1.66,0,3.31,0,4.97,0,.28-.06.51-.33.63h-3.73c-.16-.13-.29-.25-.3-.48-.04-.85-.1-1.7-.14-2.55-.12-2.23-.24-4.46-.37-6.69-.02-.41-.05-.83-.08-1.24-.22,3.42-.41,6.84-.6,10.26-.02.29-.04.57-.35.71h-3.68ZM11.97,24.63c.02-.42.04-.82.07-1.21.13-2.28.25-4.56.38-6.84.05-.93.1-1.87.16-2.8.02-.37.18-.51.55-.52.22,0,.45,0,.67,0,.34,0,.5.14.52.49.05.72.09,1.44.13,2.16.14,2.54.28,5.07.42,7.61.02.37.05.74.07,1.11h2.56v-12.98h-8.09v12.98h2.57ZM11.72,10.72h3.46v-.96h-3.46v.96ZM10.79,10.72v-.97h-1.38v.97h1.38ZM17.49,10.72v-.97h-1.38v.97h1.38Z" style="fill: #000; stroke: #000; stroke-miterlimit: 10; stroke-width: .2px;"/>
      <path d="M18.48,3.83c-.72,1.03-1.44,2.06-2.17,3.08-.2.29-.41.34-.73.18-.28-.14-.56-.28-.87-.44,0,.39,0,.74,0,1.08,0,.37-.16.56-.44.56-.28,0-.45-.2-.45-.56,0-2.15,0-4.3,0-6.46,0-.08,0-.16,0-.27h-1.68c-.38,1.49-1.33,2.37-2.91,2.39-1.17.01-2.44-.78-2.79-2.4h-1.66v12.31c.09,0,.17.01.26.01.75,0,1.51,0,2.26,0,.11,0,.22,0,.32.03.21.05.32.21.32.42,0,.22-.12.38-.34.43-.09.02-.18.02-.27.02-.94,0-1.89,0-2.83,0-.5,0-.63-.14-.63-.64,0-2.21,0-4.42,0-6.63v-.31c-.3.15-.57.28-.83.41-.39.19-.55.15-.8-.2C1.53,5.85.81,4.84.1,3.83c0-.08,0-.17,0-.25.14-.15.27-.33.44-.46C1.75,2.11,2.96,1.1,4.17.1c3.41,0,6.82,0,10.23,0,.09.07.19.13.27.21,1.17.98,2.35,1.95,3.52,2.94.11.09.19.22.28.33v.25ZM2.84,6.16c.3-.15.57-.29.85-.42.14-.06.18-.15.18-.31,0-1.23,0-2.47,0-3.7,0-.06-.01-.12-.02-.22-.91.76-1.79,1.49-2.69,2.24.57.8,1.12,1.59,1.69,2.4ZM14.71,1.5c0,1.39,0,2.7,0,4.02,0,.06.05.15.1.17.3.16.61.31.93.47.57-.81,1.13-1.6,1.69-2.4-.9-.75-1.78-1.49-2.72-2.26ZM11.17,1.01h-3.76c.08.8,1,1.53,1.89,1.52.91-.01,1.79-.73,1.87-1.52Z" style="fill: #000; stroke: #000; stroke-miterlimit: 10; stroke-width: .2px;"/>
    </g>
  </g>
</svg>