<?xml version="1.0" encoding="UTF-8"?>
<svg id="Layer_2" data-name="Layer 2" xmlns="http://www.w3.org/2000/svg" viewBox="0 0 31.28 19.55">
  <g id="_レイヤー_1" data-name="レイヤー 1">
    <g>
      <path d="M30.24,19.55H10.14c-.78-.28-1.05-.85-1.03-1.66.03-1.56,0-3.11.01-4.67,0-.19-.05-.29-.23-.36-.5-.21-.98-.44-1.47-.67-.51-.24-1.03-.47-1.56-.71-.02.07-.04.12-.05.17-.24.91-.94,1.49-1.87,1.51-.7.02-1.4.02-2.1,0-.71-.02-1.23-.38-1.58-.98C.15,11.97.08,11.75,0,11.55c0-3.05,0-6.11,0-9.16.02-.03.04-.05.05-.08.29-1.01.97-1.54,2-1.55.61,0,1.22,0,1.83,0,.46,0,.91.11,1.24.44.28.28.5.62.79.98.3-.05.69-.12,1.08-.19,2.91-.52,5.83-1.04,8.74-1.56.75-.13,1.5-.28,2.24-.42.35,0,.69,0,1.04,0,.54.17,1.1.29,1.62.52,1.49.67,2.96,1.39,4.44,2.09.61.29,1.08.72,1.42,1.3.33.57.67,1.14.99,1.72.1.17.2.24.4.24.6-.02,1.2.02,1.8-.01.81-.04,1.35.27,1.62,1.04v11.61c-.17.52-.52.87-1.04,1.04ZM5.88,3.51c0,.06-.02.11-.02.16,0,2.06,0,4.11,0,6.17,0,.18.09.24.23.31,1.05.48,2.11.97,3.16,1.46.73.34,1.49.5,2.3.5,2.83,0,5.66,0,8.49,0,.11,0,.22,0,.34,0,.52-.06.86-.57.7-1.07-.14-.45-.51-.56-.92-.63-1.61-.29-3.22-.57-4.83-.87-.91-.17-1.64-.64-2.16-1.41-.27-.4-.52-.8-.77-1.21-.06-.09-.1-.2-.11-.31-.05-.44.25-.72.77-.72,4.21,0,8.43,0,12.64,0h.4c-.24-.42-.46-.8-.67-1.18-.23-.43-.57-.73-1.01-.94-1.46-.69-2.92-1.38-4.38-2.08-.73-.35-1.49-.44-2.29-.29-2.68.49-5.36.96-8.05,1.44-1.27.23-2.54.46-3.82.69ZM13.03,13.41c0,.21.01.4,0,.59-.02.22.07.32.26.44.31.2.65.44.82.74.21.39.45.48.85.46.41-.02.69.28.69.65,0,.37-.27.62-.68.64-.35,0-.69,0-1.04,0-.51,0-.72-.19-.78-.7-.06-.42-.3-.66-.71-.72-.53-.07-.7-.27-.71-.8,0-.43,0-.87,0-1.31-.45-.02-.86-.05-1.27-.07v4.89h19.5V7.19h-15.83c.35.61.85.94,1.49,1.06.75.13,1.5.28,2.25.4.11.02.24,0,.34-.05.86-.42,1.76-.55,2.7-.4,2.27.36,3.88,2.32,3.84,4.62-.04,2.22-1.75,4.14-3.92,4.4-2.34.28-4.46-1.14-5.05-3.39-.04-.14-.07-.29-.1-.42h-2.66ZM4.57,6.97c0-1.36,0-2.73,0-4.09,0-.58-.23-.81-.82-.81-.58,0-1.16,0-1.74,0-.45,0-.71.25-.71.7,0,2.79,0,5.58,0,8.36,0,.48.27.72.75.72.55,0,1.1,0,1.65,0,.64,0,.86-.22.86-.86,0-1.34,0-2.69,0-4.03ZM22.08,10.08c.95,1.71-.31,3.47-2.07,3.33-.87-.07-1.75-.01-2.62-.01-.11,0-.21,0-.32,0,.09,1.17,1.33,2.33,2.67,2.54,1.49.23,2.96-.63,3.51-2.05.53-1.37.05-3.01-1.16-3.8Z" style="fill: #000; stroke-width: 0px;"/>
      <path d="M28.67,12.73c0,.67,0,1.34,0,2.01,0,.51-.18.71-.69.78-.42.06-.67.31-.72.74-.06.47-.27.67-.73.68-.37,0-.73,0-1.1,0-.39-.01-.67-.29-.67-.65,0-.36.29-.66.68-.63.41.03.66-.07.88-.47.17-.31.53-.54.85-.75.15-.11.22-.18.22-.37,0-.91,0-1.81,0-2.72,0-.17-.03-.27-.21-.34-.48-.2-.82-.56-1.03-1.03-.06-.14-.13-.21-.29-.19-.16.01-.33.01-.49,0-.35-.03-.61-.32-.6-.65,0-.33.27-.62.62-.63.42-.01.83-.01,1.25,0,.34.01.57.23.62.56.1.61.25.77.84.85.37.05.58.29.58.7,0,.71,0,1.42,0,2.14Z" style="fill: #000; stroke-width: 0px;"/>
    </g>
  </g>
</svg>