<?xml version="1.0" encoding="UTF-8"?>
<svg id="Layer_2" data-name="Layer 2" xmlns="http://www.w3.org/2000/svg" viewBox="0 0 26.19 20.44">
  <g id="_レイヤー_1" data-name="レイヤー 1">
    <path d="M16.19,10.88h5.86v-1.44h-5.86v1.44ZM16.19,6.9h5.86v-1.44h-5.86v1.44ZM4.13,14.98h9.52v-.24c0-.84-.42-1.49-1.26-1.95-.84-.46-2.01-.69-3.49-.69-1.49,0-2.65.23-3.49.69-.84.46-1.26,1.11-1.26,1.95v.24ZM8.89,9.78c.61,0,1.12-.21,1.53-.62s.62-.93.62-1.53-.21-1.12-.62-1.53c-.42-.42-.93-.62-1.53-.62s-1.12.21-1.53.62c-.42.42-.62.93-.62,1.53s.21,1.12.62,1.53c.42.42.93.62,1.53.62ZM2.47,20.29c-.66,0-1.21-.22-1.66-.67-.44-.44-.67-1-.67-1.66V2.47C.15,1.81.37,1.26.82.82c.44-.44,1-.67,1.66-.67h21.24c.66,0,1.21.22,1.66.67s.67,1,.67,1.66v15.49c0,.66-.22,1.21-.67,1.66s-1,.67-1.66.67H2.47ZM2.47,18.85h21.24c.22,0,.42-.09.61-.28.18-.18.28-.39.28-.61V2.47c0-.22-.09-.42-.28-.61-.18-.18-.39-.28-.61-.28H2.47c-.22,0-.42.09-.61.28-.18.18-.28.39-.28.61v15.49c0,.22.09.42.28.61.18.18.39.28.61.28ZM1.59,18.85V1.59v17.26Z" style="fill: #000; stroke: #000; stroke-miterlimit: 10; stroke-width: .3px;"/>
  </g>
</svg>