<?xml version="1.0" encoding="UTF-8"?>
<svg id="Layer_2" data-name="Layer 2" xmlns="http://www.w3.org/2000/svg" viewBox="0 0 26.4 27.25">
  <g id="_レイヤー_1" data-name="レイヤー 1">
    <path d="M3.08,21.64l-2-7.33c-.05-.22-.03-.47.06-.73.09-.26.27-.44.52-.52l1.81-.63v-6.02c0-.64.21-1.17.64-1.6.43-.43.96-.64,1.6-.64h4.7V0h5.56v4.17h4.7c.64,0,1.17.21,1.6.64.43.43.64.96.64,1.6v6.02l1.81.63c.31.11.52.3.63.55.11.25.13.49.06.71l-2.11,7.33c-.84-.27-1.59-.66-2.27-1.18s-1.44-1.27-2.29-2.24c-.8.96-1.64,1.78-2.51,2.46-.87.68-1.89,1.02-3.05,1.02s-2.18-.34-3.05-1.02c-.87-.68-1.7-1.5-2.51-2.46-.84.98-1.6,1.73-2.28,2.24-.68.52-1.44.91-2.28,1.18ZM0,27.25v-1.39h2.08c.97,0,1.93-.15,2.88-.45.95-.3,1.84-.75,2.67-1.35.83.6,1.73,1.04,2.67,1.32s1.91.42,2.88.42,1.93-.14,2.88-.42,1.84-.72,2.67-1.32c.83.6,1.73,1.05,2.67,1.35.95.3,1.91.45,2.88.45h2.08v1.39h-2.08c-.97,0-1.92-.12-2.85-.35s-1.83-.58-2.71-1.04c-.88.46-1.79.81-2.73,1.04s-1.88.35-2.83.35-1.89-.12-2.83-.35-1.85-.58-2.73-1.04c-.88.46-1.78.81-2.71,1.04-.93.23-1.88.35-2.85.35H0ZM4.86,11.95l8.34-2.71,8.34,2.71v-5.54c0-.25-.08-.45-.24-.61-.16-.16-.37-.24-.61-.24H5.72c-.25,0-.45.08-.61.24-.16.16-.24.37-.24.61v5.54ZM13.2,20.31c1.09,0,2-.38,2.73-1.13.73-.76,1.68-1.79,2.82-3.1,1.09,1.25,1.84,2.1,2.24,2.54.4.45.88.83,1.44,1.15l1.53-5.5-10.77-3.54-10.78,3.54,1.54,5.49c.56-.32,1.03-.69,1.44-1.11.4-.42,1.15-1.27,2.24-2.57,1.16,1.32,2.1,2.36,2.83,3.11s1.64,1.13,2.73,1.13Z" style="fill: #000; stroke-width: 0px;"/>
  </g>
</svg>