<?xml version="1.0" encoding="UTF-8"?>
<svg id="Layer_2" data-name="Layer 2" xmlns="http://www.w3.org/2000/svg" viewBox="0 0 26.67 26.67">
  <g id="_レイヤー_1" data-name="レイヤー 1">
    <g>
      <path d="M26.57,9.77v.31c-.23.23-.45.47-.68.7-.67.67-1.34,1.34-2.01,2.01-.26.26-.51.51-.77.77-.29.28-.49.28-.78,0-.22-.21-.43-.43-.64-.64-.07-.07-.14-.13-.25-.23v.34c0,3.17,0,6.34,0,9.51,0,.26-.08.46-.26.64-1.03,1.02-2.06,2.06-3.09,3.08-.11.11-.24.21-.37.32H1.91c-.39-.12-.78-.25-1.09-.53-.4-.36-.6-.82-.72-1.33v-.57c.14-.55.38-1.05.83-1.38-.19-.24-.39-.45-.53-.69-.14-.24-.21-.52-.31-.78,0-.21,0-.41,0-.62.06-.17.1-.35.19-.5.19-.31.41-.6.62-.91-.44-.34-.69-.83-.81-1.38v-.52c.02-.06.03-.13.05-.19.2-.92.92-1.61,1.86-1.67.87-.05,1.75-.03,2.63-.04.19,0,.37,0,.56,0v-2.81c-.29.3-.53.56-.78.81-.4.4-.55.4-.94,0-1.03-1.03-2.06-2.06-3.09-3.09-.11-.11-.19-.24-.29-.36,0-.09,0-.17,0-.26.07-.08.13-.15.2-.23,1.38-1.38,2.75-2.76,4.13-4.13.1-.1.24-.17.38-.19.83-.16,1.66-.31,2.49-.46.66-.12,1.32-.24,1.98-.36.42-.07.61.07.64.48,0,.1.03.2.05.31.9-.22,1.77-.45,2.64-.65.23-.05.32-.14.31-.39-.02-.5.06-.58.58-.65.64-.08,1.13-.65,1.12-1.28-.01-.65-.51-1.2-1.15-1.25-.68-.06-1.25.36-1.38,1.01-.02.07-.03.15-.04.22h-.83c.01-.54.2-.99.53-1.39.35-.41.82-.6,1.33-.72.17,0,.34,0,.52,0,.02.01.04.03.07.03,1.04.16,1.74,1.04,1.79,1.95.06,1.02-.51,1.85-1.52,2.19-.06.02-.12.06-.19.09,0,.03,0,.06,0,.09.98.24,1.96.49,2.96.74.02-.12.03-.2.03-.27.04-.46.22-.6.68-.52,1.46.27,2.93.53,4.39.81.17.03.35.14.48.26.58.55,1.14,1.13,1.7,1.69.86.87,1.72,1.73,2.58,2.6ZM1.16,9.89c.95.95,1.88,1.88,2.83,2.83.87-.87,1.76-1.76,2.61-2.61.2.19.4.37.62.57-.33.32-.66.64-.97.97-.09.09-.16.25-.16.38-.01,1.06,0,2.12,0,3.18,0,.08,0,.16.02.26.13,0,.23,0,.33,0,1.66,0,3.33,0,4.99,0,.2,0,.4.01.59.04,1.16.18,1.96,1.39,1.7,2.53-.12.52-.4.92-.8,1.27.54.45.85,1.01.85,1.71,0,.7-.3,1.26-.84,1.69.95.88,1.1,1.86.45,2.98h3.81c0-.72,0-1.41,0-2.11,0-1.35-.07-1.29,1.27-1.28.62,0,1.24,0,1.86,0,.09,0,.18,0,.28-.01,0-.1,0-.17,0-.24,0-3.34,0-6.69,0-10.03,0-.13-.07-.28-.16-.38-.31-.34-.65-.66-.97-.97.21-.22.4-.41.6-.62.89.9,1.77,1.79,2.62,2.64.95-.95,1.88-1.88,2.84-2.84-.04-.03-.12-.08-.18-.14-1.16-1.16-2.33-2.33-3.5-3.48-.11-.11-.28-.19-.44-.23-.72-.15-1.45-.27-2.18-.4-.54-.1-1.08-.19-1.64-.29-.19,1-.69,1.79-1.49,2.38-.79.59-1.69.91-2.67.89-2.2-.05-3.72-1.05-4.34-3.25-.03,0-.06,0-.09,0-1.27.23-2.54.46-3.81.7-.11.02-.22.09-.3.17-.82.81-1.64,1.63-2.45,2.45-.42.42-.84.84-1.25,1.25ZM6.95,22.29c1.48,0,2.96,0,4.44,0,.14,0,.28,0,.41-.02.66-.07,1.18-.73,1.09-1.39-.09-.7-.6-1.14-1.33-1.14-3.09,0-6.18,0-9.27,0-.05,0-.1,0-.15,0-.8.06-1.35.85-1.12,1.63.17.59.64.92,1.34.92,1.53,0,3.07,0,4.6,0ZM6.92,25.71c1.21,0,2.41,0,3.62,0,.42,0,.85.01,1.26-.02.67-.06,1.18-.72,1.09-1.39-.09-.72-.61-1.15-1.38-1.15-3.06,0-6.11,0-9.17,0-.08,0-.16,0-.23,0-.79.08-1.32.86-1.1,1.63.18.6.65.92,1.36.92,1.52,0,3.03,0,4.55,0ZM6.93,18.88c.96,0,1.91,0,2.87,0,.65,0,1.31.01,1.96-.02.69-.03,1.23-.71,1.13-1.4-.1-.71-.61-1.14-1.39-1.14-3.05,0-6.1,0-9.14,0-.09,0-.17,0-.26,0-.59.05-1.08.54-1.13,1.13-.07.81.48,1.41,1.33,1.42,1.54,0,3.08,0,4.62,0ZM16.44,6.01c-.73-.18-1.43-.33-2.11-.54-.67-.21-1.31-.21-1.98,0-.68.22-1.39.36-2.11.54.74,1.15,1.77,1.72,3.1,1.72,1.33,0,2.36-.56,3.1-1.72ZM18.04,25.01c.62-.62,1.23-1.23,1.84-1.84h-1.84v1.84Z" style="fill: #000; stroke: #000; stroke-miterlimit: 10; stroke-width: .2px;"/>
      <path d="M11.61,21.43H1.83v-.83h9.79v.83Z" style="fill: #000; stroke: #000; stroke-miterlimit: 10; stroke-width: .2px;"/>
      <path d="M11.62,24.02v.82H1.82v-.82h9.8Z" style="fill: #000; stroke: #000; stroke-miterlimit: 10; stroke-width: .2px;"/>
      <path d="M12.04,17.19v.83H1.82v-.83h10.22Z" style="fill: #000; stroke: #000; stroke-miterlimit: 10; stroke-width: .2px;"/>
    </g>
  </g>
</svg>