<?xml version="1.0" encoding="UTF-8"?>
<svg id="Layer_2" data-name="Layer 2" xmlns="http://www.w3.org/2000/svg" viewBox="0 0 31.8 27.13">
  <g id="_レイヤー_1" data-name="レイヤー 1">
    <g>
      <path d="M31.8,11.7v9.07c-.02.1-.05.19-.06.29-.21,1.54-1.36,2.75-2.89,3.04-.22.04-.44.06-.68.1,0,.49,0,.96,0,1.43,0,.39-.09.76-.38,1.01-.23.2-.52.33-.79.49h-.54c-.36-.26-.76-.47-1.08-.77-.68-.63-1.32-1.29-1.96-1.96-.16-.17-.33-.24-.56-.24-2.5,0-5,0-7.5,0-2.24,0-3.78-1.54-3.78-3.78,0-1.37,0-2.75,0-4.12,0-.12,0-.24,0-.38-1.18,0-2.32,0-3.45,0-.1,0-.22.1-.29.18-.52.68-1.02,1.38-1.53,2.06-.44.6-1.04.82-1.68.61-.64-.21-.98-.73-.99-1.49,0-.45,0-.9,0-1.37-.14-.02-.25-.03-.36-.04-1.6-.18-2.85-1.31-3.18-2.87-.03-.15-.06-.31-.09-.46,0-3.04,0-6.09,0-9.13.02-.1.05-.19.06-.29C.23,2.04.73,1.18,1.64.62c.47-.29,1.02-.42,1.54-.62,4.65,0,9.29,0,13.94,0,.03.02.05.05.08.05,1.51.2,3.08,1.61,3.04,3.74-.03,1.37,0,2.75,0,4.12,0,.12,0,.24,0,.39.17,0,.31,0,.44,0,2.56,0,5.11-.01,7.67.02,1.11.01,2,.53,2.69,1.4.46.58.65,1.27.77,1.98ZM26.68,25.61s.04-.06.04-.08c0-.53,0-1.06,0-1.59,0-1.08.13-1.21,1.2-1.21.03,0,.07,0,.1,0,1.4,0,2.3-.9,2.3-2.31,0-2.78,0-5.57,0-8.35,0-1.45-.89-2.33-2.35-2.33-4.21,0-8.41,0-12.62,0-1.45,0-2.35.9-2.35,2.33,0,2.77,0,5.55,0,8.32,0,1.44.91,2.33,2.35,2.33,2.62,0,5.23,0,7.85,0,.41,0,.7.13.98.41.74.76,1.49,1.5,2.24,2.25.08.08.16.15.24.22ZM12.05,10.12c-.2-.01-.29-.02-.39-.02-1.01,0-2.03,0-3.04,0-.24,0-.36.08-.45.3-.31.72-.65,1.44-.98,2.15-.14.29-.37.46-.7.44-.31-.02-.57-.18-.63-.47-.04-.22,0-.5.09-.71,1.14-2.54,2.3-5.07,3.44-7.6.15-.34.35-.59.74-.59.39,0,.59.26.74.6.67,1.49,1.35,2.97,2.03,4.46.05.11.11.21.17.33.75-.54,1.57-.72,2.45-.7.95.02,1.89,0,2.84,0,.13,0,.26,0,.44,0v-.4c0-1.34,0-2.68,0-4.03,0-1.56-.88-2.44-2.43-2.44-2.66,0-5.32,0-7.98,0-1.56,0-3.11,0-4.67,0-1.25,0-2.22.88-2.23,2.07-.02,2.95-.02,5.91,0,8.86,0,.94.66,1.75,1.57,1.97.35.09.74.08,1.11.09.66.02.92.26.92.93,0,.64,0,1.27,0,2,.13-.17.21-.26.28-.35.52-.7,1.04-1.39,1.54-2.1.24-.34.54-.48.94-.47,1.12.01,2.23,0,3.35,0,.12,0,.24,0,.36-.02.14-1.44-.26-2.9.5-4.29ZM11.3,8.64c-.39-.86-.77-1.68-1.17-2.57-.39.87-.75,1.66-1.11,2.46-.01.03,0,.06,0,.11h2.29Z" style="fill: #000; stroke-width: 0px;"/>
      <path d="M20.29,19.09c-.41-.61-.83-1.22-1.21-1.85-.2-.33-.1-.7.17-.91.26-.21.62-.22.87,0,.12.11.22.26.3.4.31.59.71,1.12,1.25,1.56.97-.82,1.53-1.85,1.75-3.13-.14,0-.26,0-.38,0-1.63,0-3.27,0-4.9,0-.58,0-.94-.46-.75-.96.12-.34.39-.48.74-.48.8,0,1.6,0,2.4,0,.12,0,.24,0,.43,0,0-.49,0-.96,0-1.43,0-.43.28-.72.68-.73.43-.02.74.28.75.74.01.46,0,.92,0,1.42.38,0,.74,0,1.1,0,.56,0,1.13,0,1.69,0,.51,0,.81.27.81.71,0,.43-.3.72-.8.73-.09,0-.18,0-.31,0-.2,1.5-.81,2.8-1.91,3.9.54.28,1.1.36,1.66.42.12.01.25,0,.37.02.4.05.67.38.65.78-.02.38-.3.65-.72.65-1.06,0-2.05-.25-2.98-.74-.19-.1-.33-.11-.52,0-.91.49-1.88.74-2.91.75-.49,0-.84-.3-.84-.73,0-.42.32-.69.82-.71.73-.02,1.44-.18,1.79-.39Z" style="fill: #000; stroke-width: 0px;"/>
    </g>
  </g>
</svg>