<?xml version="1.0" encoding="UTF-8"?>
<svg id="Layer_2" data-name="Layer 2" xmlns="http://www.w3.org/2000/svg" viewBox="0 0 26.194 30.056">
  <g id="_レイヤー_1" data-name="レイヤー 1">
    <path d="M25.876,8.072c-2.386-2.725-5.412-3.683-8.95-3.268-1.519.178-3.041.356-4.566.452-2.566.16-4.77-.693-6.602-2.51-.284-.281-.449-.558-.401-.971.09-.776-.232-1.316-.986-1.575h-.618c-.764.245-1.064.779-1.011,1.563.029.423.007.849.005,1.273,0,.287.12.484.421.489.322.005.449-.195.447-.502-.004-.476.002-.952-.002-1.428-.002-.308.091-.549.445-.547.358.003.432.255.432.558-.002,2.367-.002,4.735-.003,7.102-.001,3.59-.002,7.179-.003,10.769,0,.14,0,.28,0,.448h-.869v-.446c0-4.542,0-11.546,0-16.088,0-.116,0-.232-.001-.347,0-.275-.131-.447-.412-.455-.299-.009-.445.162-.453.455-.003.103-.001.206-.001.309,0,4.555,0,11.572,0,16.126v.475c-.163,0-.3-.001-.436,0-1.026.012-1.714.52-2.041,1.505-.016.047-.046.088-.07.132v2.857c.204.645.639,1.117,1.139,1.546.301.258.575.547.874.807.353.307.518.683.504,1.15-.012.422-.031.847.009,1.266.021.219.165.425.253.637h5.329c.279-.21.313-.46.175-.779-.204-.471-.406-.948-.551-1.44-.125-.423-.231-.869-.237-1.306-.025-1.93-.005-3.861-.013-5.791-.005-1.223-.83-2.067-2.039-2.116-.085-.004-.17-.02-.267-.032v-3.413c.054,0,.095-.011.128.002,1.514.564,3.015.424,4.49-.127,2.787-1.042,6.225-3.687,8.664-5.304.104-.069-.371-.104-.447-.222-.078-.121.088-.445-.094-.461-.092-.008-.617.397-.712.463-.977.668-2.61,1.772-3.592,2.433-1.378.927-2.766,1.838-4.361,2.364-1.233.406-2.467.479-3.707.019-.27-.1-.396-.223-.395-.548.016-3.205.009-6.409.01-9.614,0-.108.014-.217.025-.377.169.141.295.245.419.35,1.583,1.351,3.412,2.144,5.492,2.149,1.525.004,3.054-.164,4.574-.317,1.63-.164,3.254-.338,4.875.046,1.085.257,2.066.729,2.986,1.442-.092.019-.127.036-.16.031-1.855-.285-3.902.773-5.272,1.445-.407.2-.514.4-.36.671.191.335.446.25.729.12.443-.204,1.818-.855,2.278-1.018,1.455-.514,2.9-.55,4.302.181.316.165.535.064.744-.166v-.386c-.04-.027-.088-.047-.118-.082ZM7.45,28.97h-3.846v-.728h.41c.886,0,1.773,0,2.659,0,.631,0,.652.019.777.728ZM5.36,20.222c.004-.293,0-.587,0-.873.689-.153,1.281.217,1.417.862.024.112.036.229.036.344.002,2.259.002,4.517.002,6.798h-3.26c-.265-1.022-1.168-1.536-1.872-2.209-.435-.416-.658-.855-.624-1.456.03-.538,0-1.079.008-1.619.012-.778.481-1.244,1.259-1.25.81-.006,1.619,0,2.429-.002.459-.002.598-.141.604-.594Z" style="fill: #000; stroke: #000; stroke-miterlimit: 10; stroke-width: .4px;"/>
  </g>
</svg>