<?xml version="1.0" encoding="UTF-8"?>
<svg id="Layer_2" data-name="Layer 2" xmlns="http://www.w3.org/2000/svg" viewBox="0 0 27.7 27.7">
  <g id="_レイヤー_1" data-name="レイヤー 1">
    <g>
      <path d="M26.78,12.23c-.32.06-.56.3-.62.62-.02.11-.02.22-.02.35v.93c0,2.8,0,5.6,0,8.4,0,.29-.1.44-.36.54-.94.36-1.89.75-2.81,1.12l-1.11.44c-.7.28-1.39.55-2.11.84l-.79.31v-9.1c0-.09,0-.17,0-.25-.04-.43-.37-.72-.78-.72-.4,0-.71.3-.75.72,0,.08,0,.16,0,.25v.08s0,9.01,0,9.01l-.26-.1c-.09-.03-.16-.06-.24-.09l-1.49-.6c-1.57-.63-3.19-1.28-4.79-1.91-.33-.13-.39-.31-.39-.59,0-3.62,0-7.24,0-10.86v-2.73l.55.22c.23.09.44.17.65.26.33.13.66.26.99.4.64.26,1.28.51,1.92.77.26.1.54.09.76-.04.2-.12.33-.32.36-.56.05-.36-.16-.67-.56-.83l-.68-.27c-1.43-.58-2.91-1.18-4.37-1.74-.22-.08-.56-.08-.8.02-1.64.64-3.31,1.31-4.92,1.95-1.12.45-2.23.89-3.35,1.34-.42.17-.66.37-.79.68v16l.62.62h.35l.89-.36c.7-.29,1.4-.58,2.11-.86,2-.81,3.67-1.47,5.24-2.09.13-.05.35-.09.52-.02,2.4.95,4.8,1.91,7.2,2.87l.98.39s.08.04.12.06h.02s.36.01.36.01l.85-.35c.69-.28,1.38-.57,2.08-.85,1.89-.76,3.75-1.51,5.61-2.24.42-.17.65-.37.77-.69v-10.77l-.12-.2c-.18-.28-.48-.42-.79-.36ZM8.33,23.08c-1.58.62-3.15,1.25-4.73,1.88l-1.55.62c-.07.03-.13.05-.21.08l-.28.1v-2.93c0-3.55,0-7.1,0-10.65,0-.27.06-.46.39-.59,1.52-.6,3.04-1.21,4.55-1.81l1.79-.72c.06-.02.12-.04.19-.06l.25-.08v3.11c0,3.48,0,6.97,0,10.45,0,.31-.11.47-.4.59Z" style="fill: #000; stroke-width: 0px;"/>
      <path d="M21.06.03c-.08.02-.16.04-.24.05-1.5.24-2.74.92-3.66,2.02-1.32,1.58-1.75,3.26-1.27,5,.25.9.69,1.77,1.05,2.43,1.16,2.12,2.71,4,4.07,5.57.22.26.45.38.68.38h0c.23,0,.46-.13.68-.39.14-.16.27-.32.41-.49.45-.53.91-1.07,1.33-1.64l.06-.08c1.49-1.99,3.03-4.05,3.52-6.6v-.8c-.03-.14-.06-.28-.09-.43-.06-.31-.13-.63-.24-.93-.82-2.27-2.44-3.63-4.84-4.06-.08-.01-.15-.03-.23-.05l-.11-.03h-1.06s-.07.03-.07.03ZM23.72,2.06c1.52.78,2.33,2.07,2.42,3.83.03.69-.23,1.31-.48,1.84-1.02,2.14-2.48,4-3.88,5.73l-.08.1-.08-.1c-1.53-1.84-2.59-3.32-3.42-4.8-.27-.48-.52-1.01-.74-1.58-.63-1.58.15-3.71,1.74-4.75,1.45-.95,3.02-1.04,4.52-.27Z" style="fill: #000; stroke-width: 0px;"/>
      <path d="M21.68,8.51h0c.66,0,1.3-.27,1.78-.75.48-.48.74-1.11.73-1.76-.01-1.37-1.14-2.49-2.5-2.5h0c-.66,0-1.28.26-1.76.74-.48.48-.74,1.11-.74,1.78,0,1.37,1.13,2.49,2.5,2.49ZM21.69,5.04h0c.53,0,.96.44.97.97h0c0,.52-.44.97-.96.98h-.01c-.25,0-.5-.11-.69-.29-.19-.19-.29-.44-.29-.7,0-.52.46-.95.98-.95Z" style="fill: #000; stroke-width: 0px;"/>
    </g>
  </g>
</svg>