<?xml version="1.0" encoding="UTF-8"?>
<svg id="Layer_2" data-name="Layer 2" xmlns="http://www.w3.org/2000/svg" viewBox="0 0 28.08 24.96">
  <g id="_レイヤー_1" data-name="レイヤー 1">
    <path d="M14.04,19.86c1.63,0,3.01-.56,4.13-1.69,1.13-1.13,1.69-2.5,1.69-4.13s-.56-3.01-1.69-4.13c-1.13-1.13-2.5-1.69-4.13-1.69s-3.01.56-4.13,1.69c-1.13,1.13-1.69,2.5-1.69,4.13s.56,3.01,1.69,4.13c1.13,1.13,2.5,1.69,4.13,1.69ZM14.04,18.3c-1.21,0-2.23-.41-3.04-1.22-.81-.81-1.22-1.83-1.22-3.04s.41-2.23,1.22-3.04c.81-.81,1.83-1.22,3.04-1.22,1.21,0,2.23.41,3.04,1.22.81.81,1.22,1.83,1.22,3.04,0,1.21-.41,2.23-1.22,3.04-.81.81-1.83,1.22-3.04,1.22ZM2.52,24.96c-.72,0-1.32-.24-1.8-.72-.48-.48-.72-1.08-.72-1.8V5.64c0-.72.24-1.32.72-1.8.48-.48,1.08-.72,1.8-.72h4.61l2.89-3.12h8.04l2.89,3.12h4.61c.72,0,1.32.24,1.8.72s.72,1.08.72,1.8v16.8c0,.72-.24,1.32-.72,1.8s-1.08.72-1.8.72H2.52ZM2.52,23.4h23.04c.28,0,.51-.09.69-.27.18-.18.27-.41.27-.69V5.64c0-.28-.09-.51-.27-.69-.18-.18-.41-.27-.69-.27h-5.3l-2.88-3.12h-6.69l-2.88,3.12H2.52c-.28,0-.51.09-.69.27-.18.18-.27.41-.27.69v16.8c0,.28.09.51.27.69.18.18.41.27.69.27Z" style="fill: #000; stroke-width: 0px;"/>
  </g>
</svg>