<?xml version="1.0" encoding="UTF-8"?>
<svg id="Layer_2" data-name="Layer 2" xmlns="http://www.w3.org/2000/svg" viewBox="0 0 25.13 24.99">
  <g id="_レイヤー_1" data-name="レイヤー 1">
    <g>
      <path d="M10.7,23.15c-.08-.02-.17-.04-.25-.06h-.04c-4.57-1.02-7.8-4.49-8.44-9.07-.45-3.21.39-6.04,2.49-8.4,2.92-3.28,6.62-4.4,10.98-3.33,1.04.25,2.04.71,3.05,1.4l.07.05-.05.07c-.08.12-.16.24-.24.35-.19.28-.37.54-.55.81-.08.12-.1.22-.06.28.03.06.13.08.27.07,1.28-.1,2.41-.2,3.45-.31.19-.02.33-.09.4-.2.08-.12.09-.29.04-.49-.33-1.2-.62-2.26-.91-3.24-.03-.11-.13-.24-.16-.25h0c-.08,0-.21.09-.29.19-.19.25-.36.5-.55.77-.07.11-.15.21-.22.32l-.05.07-.17-.1c-.06-.04-.12-.07-.18-.11-1.28-.81-2.65-1.38-4.06-1.67-.42-.09-.86-.15-1.28-.21-.19-.03-.39-.06-.58-.09h-1.49c-.2.03-.42.06-.64.1-.47.07-.95.14-1.41.24-2.72.6-5.02,1.99-6.84,4.12C1.3,6.44.31,8.77.05,11.39c0,.06-.02.11-.03.17,0,.02-.01.05-.02.07v1.95c.03.16.06.33.08.51.05.37.11.74.2,1.1,1.26,5.13,4.51,8.38,9.65,9.68.08.02.16.05.24.08.03.01.06.02.09.03h.44l.03-.02s.08-.05.12-.07c.38-.19.6-.54.57-.92-.03-.41-.31-.72-.72-.84Z" style="fill: #000; stroke-width: 0px;"/>
      <path d="M24.2,11.21c-.15,0-.31.04-.45.12-.34.19-.49.49-.48.95,0,.06,0,.12,0,.17,0,.47,0,.92.48,1.19.23.13.46.17.68.1.27-.08.51-.31.7-.66v-1.18l-.03-.06c-.03-.06-.06-.12-.1-.18-.18-.29-.48-.45-.79-.45Z" style="fill: #000; stroke-width: 0px;"/>
      <path d="M15.31,22.98c-.3.03-.63.1-.98.21-.34.1-.58.45-.58.83,0,.39.17.67.52.85.07.03.13.06.2.09.03.01.05.02.08.03h.25c.06-.02.15-.04.24-.06.19-.05.39-.1.59-.15.46-.14.73-.59.64-1.06-.09-.46-.5-.78-.97-.73Z" style="fill: #000; stroke-width: 0px;"/>
      <path d="M12.67,12.07c0-.83,0-1.67,0-2.48v-1.9c0-.79,0-1.57,0-2.36,0-.54-.28-.88-.72-.88h-.02c-.19,0-.36.06-.48.18-.16.16-.24.4-.24.71v2.31c0,1.82,0,3.63,0,5.45,0,.19.05.27.23.36,1.53.79,3.07,1.58,4.6,2.37l1.89.98c.25.13.5.26.76.38.3.14.62.09.84-.14.11-.12.35-.43.15-.76-.11-.19-.32-.38-.55-.5-1.76-.93-3.71-1.93-6.13-3.17-.24-.12-.33-.28-.33-.55Z" style="fill: #000; stroke-width: 0px;"/>
      <path d="M23.9,15.16c-.08-.02-.15-.03-.23-.03-.35,0-.67.19-.81.5-.13.28-.24.59-.32.91-.1.4.11.83.51,1.02.36.17.88.12,1.09-.26.16-.28.27-.59.36-.84.03-.08.06-.16.08-.23,0-.59-.26-.98-.7-1.08Z" style="fill: #000; stroke-width: 0px;"/>
      <path d="M22.79,9.33c.18.4.61.6,1.06.49.42-.1.68-.5.69-1.07-.03-.07-.06-.15-.09-.23-.1-.26-.22-.58-.4-.86-.14-.23-.39-.32-.64-.32-.16,0-.32.04-.46.11-.38.2-.58.64-.46,1.04.09.31.19.59.31.85Z" style="fill: #000; stroke-width: 0px;"/>
      <path d="M22.4,18.82c-.17-.11-.35-.17-.53-.17-.23,0-.45.09-.62.27-.22.22-.42.48-.6.75-.18.28-.19.59-.02.91.17.3.43.47.81.52.06-.02.11-.04.17-.05.13-.04.25-.07.32-.14.29-.3.59-.63.8-1,.21-.38,0-.85-.33-1.07Z" style="fill: #000; stroke-width: 0px;"/>
      <path d="M19,21.36c-.12,0-.24.03-.35.08-.29.14-.58.32-.85.52-.3.23-.41.66-.27,1.03.15.37.5.58.96.58h0c.4-.1.94-.33,1.3-.84.21-.3.16-.75-.11-1.06-.19-.21-.44-.32-.68-.32Z" style="fill: #000; stroke-width: 0px;"/>
    </g>
  </g>
</svg>