<?xml version="1.0" encoding="UTF-8"?>
<svg id="Layer_2" data-name="Layer 2" xmlns="http://www.w3.org/2000/svg" viewBox="0 0 16.58 25.83">
  <g id="_レイヤー_1" data-name="レイヤー 1">
    <g>
      <path d="M16.47,10.22c-.35-1.14-1.45-1.78-2.61-1.51l-.34.07v-.42c0-.48,0-.96,0-1.44,0-1.07,0-2.14,0-3.21,0-.61-.25-1.17-.68-1.59-.43-.41-1.02-.62-1.62-.59-.15,0-.3.04-.47.07-.08.02-.16.03-.24.05h-.08s-.04-.08-.04-.08c-.01-.03-.03-.06-.04-.1-.3-.79-.84-1.26-1.65-1.44-.04,0-.07-.03-.09-.04h0s-.67,0-.67,0c-.05.02-.1.03-.14.05-.12.04-.23.07-.33.11-.64.27-1.07.74-1.3,1.45l-.03.1-.1-.03c-.81-.27-1.55-.16-2.18.34-.6.48-.88,1.14-.82,1.97v.11s-.1,0-.1,0c-.12,0-.24,0-.35,0-.25,0-.49-.02-.72.02-.94.14-1.61.77-1.83,1.73,0,.04-.02.07-.03.11v.03s0,12.89,0,12.89c.02.1.04.19.06.29.04.21.09.43.14.64.18.67.47,1.26.87,1.77.68.85,1,1.81.96,2.86,0,.07,0,.14,0,.21,0,.1,0,.2,0,.31-.04.44.11.73.48.91h11.55c.36-.17.51-.46.49-.92-.03-.76-.04-1.5.27-2.19.18-.4.39-.76.61-1.07.63-.85.99-1.73,1.1-2.68,0-.04.02-.08.03-.11v-.02s0-8.25,0-8.25l-.03-.1c-.02-.09-.05-.18-.08-.27ZM14.41,20.8c-.8,1.03-1.2,2.19-1.19,3.47,0,.02,0,.05,0,.08v.14H3.42v-.09c-.03-.15-.05-.31-.07-.46-.04-.35-.08-.67-.14-1-.14-.73-.46-1.41-.94-2.01-.64-.81-.95-1.73-.95-2.82,0-2.71,0-5.42,0-8.13v-3.62c0-.1,0-.2.02-.3.09-.43.49-.74.93-.69.45.05.77.42.77.88,0,1.05,0,2.09,0,3.14v1.21c0,.32.09.87.66.87h0c.18,0,.33-.06.44-.17.15-.15.22-.39.22-.7v-.97c0-1.93,0-3.86,0-5.8,0-.12,0-.27.05-.4.12-.4.49-.65.9-.61.41.04.74.38.78.8,0,.07,0,.13,0,.2v.06s0,1.7,0,1.7c0,1.7,0,3.41,0,5.11,0,.32.1.53.33.67.2.12.44.13.64.02.21-.11.34-.32.36-.56,0-.16,0-.33,0-.49v-1.51c0-2.17,0-4.34,0-6.5,0-.12,0-.27.04-.4.11-.4.49-.65.9-.61.41.04.74.38.78.79,0,.06,0,.13,0,.19v1.35c0,2.35,0,4.7,0,7.06,0,.32.1.53.33.67.2.13.45.13.65.02.22-.12.35-.34.35-.6,0-.43,0-.86,0-1.3v-1.94c0-1.27,0-2.54,0-3.8,0-.33.15-.62.4-.79.23-.15.52-.18.79-.06.34.15.53.43.53.81,0,.31,0,.61,0,.92v.38c0,3.41,0,6.81,0,10.22v.03c0,.1,0,.19.02.28.07.3.34.52.64.52.02,0,.04,0,.06,0,.35-.03.6-.32.6-.7,0-1.04,0-2.08,0-3.11v-1.21c0-.05,0-.1,0-.15,0-.52.34-.9.82-.92.01,0,.02,0,.04,0,.43,0,.8.35.86.83,0,.07,0,.15,0,.23v2.44c0,1.6,0,3.2,0,4.8,0,.96-.28,1.82-.85,2.54Z" style="fill: #000; stroke-width: 0px;"/>
      <path d="M5.24,12.71h0c-.36,0-.66.3-.66.66,0,.17.07.35.2.47.13.12.29.19.46.19,0,0,0,0,.01,0,.36,0,.65-.31.65-.67,0-.35-.31-.65-.66-.65Z" style="fill: #000; stroke-width: 0px;"/>
      <path d="M9.81,14.75h0c-.18,0-.34.07-.47.2-.13.13-.19.3-.19.48,0,.35.31.65.66.65h.01c.36,0,.65-.31.65-.67,0-.36-.31-.66-.66-.66Z" style="fill: #000; stroke-width: 0px;"/>
      <path d="M3.05,17.44c0,.36.3.66.65.67.18,0,.35-.07.47-.19.13-.13.2-.3.2-.47,0-.36-.31-.66-.66-.66h0c-.36,0-.66.3-.66.66Z" style="fill: #000; stroke-width: 0px;"/>
      <path d="M6.77,18.3h0c-.35,0-.66.3-.66.65,0,.18.07.35.19.48.13.13.29.2.47.2h0c.36,0,.66-.31.66-.66,0-.36-.3-.66-.66-.66Z" style="fill: #000; stroke-width: 0px;"/>
      <path d="M12.37,18.3s0,0-.01,0c-.17,0-.33.07-.46.19-.13.13-.2.3-.2.47,0,.36.3.66.66.66h0c.35,0,.66-.3.66-.65,0-.36-.29-.66-.65-.67Z" style="fill: #000; stroke-width: 0px;"/>
      <path d="M9.31,21.35h0c-.35,0-.66.3-.66.65,0,.18.07.35.19.48.13.13.29.2.47.2h0c.36,0,.66-.31.66-.66s-.3-.66-.66-.66Z" style="fill: #000; stroke-width: 0px;"/>
    </g>
  </g>
</svg>