<?xml version="1.0" encoding="UTF-8"?>
<svg id="Layer_2" data-name="Layer 2" xmlns="http://www.w3.org/2000/svg" viewBox="0 0 24.89 26.22">
  <g id="_レイヤー_1" data-name="レイヤー 1">
    <path d="M1.7,26.22v-14.89H0v-6.12h7.11c-.27-.24-.46-.53-.57-.86-.11-.33-.16-.68-.16-1.05,0-.92.32-1.69.96-2.34C7.98.32,8.76,0,9.68,0,10.21,0,10.7.12,11.14.37s.83.57,1.15.97c.32-.4.7-.73,1.15-.98.44-.25.93-.37,1.46-.37.92,0,1.69.32,2.34.96.64.64.96,1.42.96,2.34,0,.36-.05.71-.16,1.04-.11.33-.3.63-.57.87h7.43v6.12h-1.7v14.89H1.7ZM14.89,1.38c-.54,0-1,.18-1.36.55-.37.37-.55.82-.55,1.36s.18,1,.55,1.36.82.55,1.36.55,1-.18,1.36-.55c.37-.37.55-.82.55-1.36s-.18-1-.55-1.36c-.37-.37-.82-.55-1.36-.55ZM7.76,3.3c0,.54.18,1,.55,1.36.37.37.82.55,1.36.55.54,0,1-.18,1.36-.55.37-.37.55-.82.55-1.36s-.18-1-.55-1.36c-.37-.37-.82-.55-1.36-.55s-1,.18-1.36.55c-.37.37-.55.82-.55,1.36ZM1.38,6.59v3.35h10.37v-3.35H1.38ZM11.75,24.83v-13.51H3.08v13.51h8.67ZM13.14,24.83h8.67v-13.51h-8.67v13.51ZM23.51,9.94v-3.35h-10.37v3.35h10.37Z" style="fill: #000; stroke-width: 0px;"/>
  </g>
</svg>