<?xml version="1.0" encoding="UTF-8"?>
<svg id="Layer_2" data-name="Layer 2" xmlns="http://www.w3.org/2000/svg" viewBox="0 0 30.53 28.52">
  <g id="_レイヤー_1" data-name="レイヤー 1">
    <path d="M23.8,5.06c-.7,0-1.29-.25-1.79-.74-.5-.5-.74-1.09-.74-1.79s.25-1.29.74-1.79S23.11,0,23.8,0c.7,0,1.29.25,1.79.74s.74,1.09.74,1.79-.25,1.29-.74,1.79c-.5.5-1.09.74-1.79.74ZM21.9,28.52v-11.61c0-.87-.2-1.66-.59-2.35-.4-.7-.98-1.25-1.76-1.66l1.57-4.11c.2-.55.55-.99,1.04-1.32.5-.34,1.04-.5,1.64-.5s1.14.16,1.64.49c.5.33.85.77,1.04,1.34l4.04,10.59h-3.97v9.14h-4.66ZM15.58,13.45c-.54,0-1.01-.19-1.38-.57-.38-.38-.57-.84-.57-1.39s.19-1.01.57-1.38.84-.57,1.39-.57,1.01.19,1.38.57c.38.38.57.84.57,1.39s-.19,1.01-.57,1.38c-.38.38-.84.57-1.39.57ZM5.12,5.06c-.7,0-1.29-.25-1.79-.74-.5-.5-.74-1.09-.74-1.79s.25-1.29.74-1.79C3.83.25,4.42,0,5.12,0c.7,0,1.29.25,1.79.74.5.5.74,1.09.74,1.79s-.25,1.29-.74,1.79c-.5.5-1.09.74-1.79.74ZM2.47,28.52v-9.83H0v-8.8c0-.66.24-1.23.71-1.71.47-.47,1.04-.71,1.71-.71h5.4c.66,0,1.23.24,1.71.71s.71,1.04.71,1.71v8.8h-2.47v9.83H2.47ZM13.74,28.52v-5.23h-1.49v-6.38c0-.51.18-.95.54-1.3.36-.36.79-.54,1.3-.54h2.99c.51,0,.95.18,1.3.54.36.36.54.79.54,1.3v6.38h-1.49v5.23h-3.68Z" style="fill: #000; stroke-width: 0px;"/>
  </g>
</svg>