<?xml version="1.0" encoding="UTF-8"?>
<svg id="Layer_2" data-name="Layer 2" xmlns="http://www.w3.org/2000/svg" viewBox="0 0 32.98 27.26">
  <g id="_レイヤー_1" data-name="レイヤー 1">
    <g>
      <path d="M0,23.72c.18-.77.3-1.57.55-2.32,1.06-3.22,3.2-5.51,6.19-7.02.8-.41,1.67-.7,2.52-1.04-.35-.27-.73-.52-1.06-.82-2.18-2.02-3-4.49-2.15-7.35C6.89,2.32,8.88.65,11.8.09c.11-.02.21-.06.31-.09.53,0,1.07,0,1.6,0,.58.16,1.17.28,1.73.48,5.05,1.86,6.25,8.54,2.16,12.04-.34.29-.71.55-1.11.85.18.06.33.11.49.16,3.38,1.08,5.99,3.11,7.64,6.28.83,1.6,1.19,3.31,1.2,5.1,0,.43-.02.87,0,1.3.02.44-.11.79-.5,1.03h-.42c-.42-.21-.54-.55-.53-1,.02-1.33.04-2.66-.34-3.96-.91-3.16-2.93-5.4-5.87-6.75-3.85-1.77-7.72-1.66-11.41.47-3.42,1.97-5.28,4.96-5.34,8.97,0,.42-.02.84,0,1.26.03.45-.11.79-.51,1.02H0C0,26.08,0,24.9,0,23.72ZM12.9,12.91c3.15,0,5.72-2.57,5.73-5.73.01-3.15-2.57-5.73-5.72-5.74-3.17,0-5.77,2.59-5.76,5.75.01,3.16,2.59,5.72,5.74,5.72Z" style="fill: #000; stroke-width: 0px;"/>
      <path d="M32.98,23.89c-.22.33-.48.6-.93.44-.44-.15-.5-.51-.49-.92.03-1.31-.01-2.61-.53-3.84-1.1-2.6-3.07-4.19-5.75-4.91-.68-.18-1.41-.19-2.11-.31-.25-.04-.54-.1-.72-.26-.39-.35-.19-.99.32-1.13.15-.04.3-.05.46-.06,2.28-.17,4.03-2.01,4.04-4.27.01-2.26-1.71-4.11-4-4.31-.1,0-.2,0-.29-.02-.44-.05-.74-.35-.73-.73.01-.4.34-.71.8-.7,1.2.02,2.29.38,3.26,1.08,3.16,2.29,3.2,6.87.08,9.24-.07.05-.13.1-.26.2.18.07.32.11.45.16,3.51,1.4,5.75,3.84,6.34,7.65.01.08.05.16.07.24v2.44Z" style="fill: #000; stroke-width: 0px;"/>
    </g>
  </g>
</svg>