<?xml version="1.0" encoding="UTF-8"?>
<svg id="Layer_2" data-name="Layer 2" xmlns="http://www.w3.org/2000/svg" viewBox="0 0 21.85 22.17">
  <g id="_レイヤー_1" data-name="レイヤー 1">
    <path d="M10.98,9.01v-1.39h6.72v1.39h-6.72ZM10.98,3.78v-1.39h10.87v1.39h-10.87ZM5.54,22.17c-1.54,0-2.85-.54-3.93-1.61S0,18.17,0,16.63c0-.97.24-1.87.73-2.71.49-.84,1.17-1.54,2.04-2.08V2.77c0-.78.27-1.44.8-1.97.53-.53,1.19-.8,1.97-.8s1.44.27,1.97.8c.53.53.8,1.19.8,1.97v9.06c.88.55,1.56,1.24,2.04,2.08.49.84.73,1.75.73,2.71,0,1.54-.54,2.85-1.61,3.93-1.08,1.08-2.39,1.61-3.93,1.61ZM1.39,16.63h8.31c0-.69-.18-1.35-.55-1.99-.37-.64-.9-1.21-1.59-1.71l-.63-.46V2.77c0-.39-.13-.72-.4-.99-.27-.27-.59-.4-.99-.4s-.72.13-.99.4-.4.59-.4.99v9.7l-.63.46c-.69.5-1.22,1.07-1.59,1.71-.37.64-.55,1.3-.55,1.99Z" style="fill: #000; stroke-width: 0px;"/>
  </g>
</svg>