<?xml version="1.0" encoding="UTF-8"?>
<svg id="Layer_2" data-name="Layer 2" xmlns="http://www.w3.org/2000/svg" viewBox="0 0 27.241 27.241">
  <g id="_レイヤー_1" data-name="レイヤー 1">
    <g>
      <path d="M6.86.1c.246.197.324.449.323.765-.011,2.018-.007,4.035-.006,6.053.001,1.351-.571,2.372-1.76,3.021-.211.115-.187.267-.187.438,0,3.085,0,6.17,0,9.255,0,1.83-.027,3.66.011,5.49.02.985-.31,1.681-1.267,2.019h-.634c-1.023-.423-1.279-.808-1.279-1.921,0-4.94-.002-9.88.007-14.82,0-.259-.073-.395-.303-.513-.568-.293-1-.742-1.283-1.313-.159-.32-.256-.672-.381-1.009,0-2.488,0-4.976,0-7.464h.704c.277.172.36.419.358.742-.012,1.689-.006,3.379-.006,5.069,0,.126,0,.253,0,.394h.95c0-.152,0-.279,0-.407,0-1.666.006-3.332-.006-4.998-.002-.325.059-.596.323-.801h.423c.263.205.325.476.322.801-.012,1.678-.006,3.356-.006,5.034,0,.123,0,.247,0,.376h.951v-.4c0-1.69.007-3.379-.006-5.069-.002-.323.08-.571.358-.742h.352c.277.172.36.419.358.742-.012,1.689-.006,3.379-.006,5.069,0,.126,0,.253,0,.394h.95c0-.152,0-.279,0-.407,0-1.666.006-3.332-.006-4.998-.002-.325.059-.596.323-.801h.423ZM1.225,7.411c.039.697.573,1.382,1.291,1.678.576.237.601.274.601.911,0,5.091,0,10.181,0,15.272,0,.556.151.798.506.81.366.013.551-.259.551-.811,0-5.114,0-10.228,0-15.342,0-.573.034-.613.557-.829.748-.309,1.188-.87,1.368-1.689H1.225Z" style="fill: #000; stroke: #000; stroke-miterlimit: 10; stroke-width: .2px;"/>
      <path d="M25.239,27.141c-.943-.321-1.293-.986-1.279-1.968.034-2.344.006-4.689.017-7.034.001-.27-.063-.473-.275-.637-1.206-.933-1.633-2.15-1.55-3.672.097-1.777.045-3.563.018-5.344-.054-3.553,1.346-6.353,4.265-8.387h.704v25.773c-.205.64-.627,1.063-1.268,1.268h-.634ZM26.084,1.718c-.148.129-.24.199-.321.28-1.564,1.557-2.456,3.434-2.507,5.644-.056,2.393-.02,4.787-.022,7.181,0,.495.186.912.538,1.258.309.305.604.625.924.917.244.223.339.473.338.806-.011,2.488-.006,4.975-.006,7.463,0,.563.175.825.542.814.354-.011.514-.26.514-.808,0-7.71,0-15.419,0-23.129v-.427Z" style="fill: #000; stroke: #000; stroke-miterlimit: 10; stroke-width: .2px;"/>
      <path d="M13.61,6.122c4.134-.01,7.506,3.357,7.507,7.496.001,4.137-3.371,7.507-7.505,7.5-4.128-.008-7.474-3.349-7.49-7.48-.016-4.133,3.345-7.507,7.487-7.516ZM20.061,13.617c-.003-3.558-2.901-6.448-6.453-6.438-3.547.01-6.417,2.88-6.429,6.427-.012,3.552,2.879,6.451,6.435,6.456,3.554.005,6.45-2.891,6.447-6.445Z" style="fill: #000; stroke: #000; stroke-miterlimit: 10; stroke-width: .2px;"/>
      <path d="M14.093,23.709c-2.408-.007-4.176-.516-5.801-1.52-.348-.215-.451-.475-.31-.753.158-.313.478-.379.84-.156.99.609,2.047,1.049,3.197,1.227,3.353.52,6.178-.473,8.453-3,.086-.096.163-.201.253-.293.218-.222.51-.25.727-.077.234.187.268.481.073.752-.109.152-.235.293-.36.432-2.026,2.236-4.556,3.346-7.07,3.389Z" style="fill: #000; stroke: #000; stroke-miterlimit: 10; stroke-width: .2px;"/>
      <path d="M13.208,3.518c3.246.057,5.644,1.065,7.631,3.05.219.219.342.455.159.75-.199.322-.554.304-.9.016-.61-.509-1.194-1.075-1.874-1.471-2.71-1.578-5.524-1.69-8.396-.443-.086.037-.169.081-.256.118-.336.144-.612.065-.753-.212-.14-.276-.046-.582.286-.722.646-.272,1.293-.572,1.969-.737.837-.204,1.704-.282,2.133-.348Z" style="fill: #000; stroke: #000; stroke-miterlimit: 10; stroke-width: .2px;"/>
      <path d="M8.763,13.438c.159-1.943,1.079-3.377,2.851-4.235.343-.166.647-.074.783.211.139.293.006.574-.362.757-1.381.686-2.115,1.802-2.211,3.338-.026.413-.221.643-.547.634-.335-.01-.52-.265-.514-.704Z" style="fill: #000; stroke: #000; stroke-miterlimit: 10; stroke-width: .2px;"/>
    </g>
  </g>
</svg>