<?xml version="1.0" encoding="UTF-8"?>
<svg id="Layer_2" data-name="Layer 2" xmlns="http://www.w3.org/2000/svg" viewBox="0 0 17.58 27.05">
  <g id="_レイヤー_1" data-name="レイヤー 1">
    <path d="M8.7,27.05c-.95,0-1.87-.1-2.77-.3-.89-.2-1.7-.46-2.43-.77-1.04-.45-1.89-.99-2.54-1.63-.65-.64-.97-1.36-.97-2.15v-7.83c0-.7.26-1.34.79-1.93.53-.59,1.21-1.11,2.04-1.56.85-.45,1.8-.8,2.84-1.04,1.04-.24,2.08-.36,3.13-.36s2.09.12,3.13.36c1.04.24,1.98.59,2.84,1.04.85.45,1.54.97,2.05,1.56.52.59.77,1.23.77,1.93v7.83c0,.38-.08.76-.25,1.12-.17.36-.41.7-.72,1.01-.31.32-.69.61-1.12.9s-.9.54-1.41.76c.03-.11.07-.43.12-.95,0-1.31-.46-2.43-1.39-3.36-.93-.93-2.04-1.39-3.34-1.39-.98,0-1.84.26-2.59.77-.75.51-1.31,1.17-1.68,1.99.71.21,1.36.35,1.97.41s1.13.09,1.58.09c.39,0,.7-.01.94-.04.24-.03.39-.04.46-.04v3.51c-.25.05-.5.07-.74.08-.24,0-.47,0-.71,0ZM12.84,19.61c.74,0,1.38-.26,1.91-.79.53-.53.8-1.16.8-1.9s-.27-1.38-.8-1.91c-.53-.53-1.17-.8-1.92-.8s-1.38.27-1.91.8c-.52.53-.79,1.17-.79,1.92s.26,1.38.79,1.91c.53.52,1.16.79,1.9.79ZM8.79,8.11c1.13,0,2.08-.39,2.87-1.18.79-.79,1.18-1.75,1.18-2.89s-.39-2.07-1.18-2.86C10.87.39,9.91,0,8.79,0c-1.15,0-2.11.39-2.89,1.18-.78.79-1.16,1.75-1.16,2.87s.39,2.09,1.17,2.88c.78.79,1.74,1.18,2.89,1.18Z" style="fill: #000; stroke-width: 0px;"/>
  </g>
</svg>