<?xml version="1.0" encoding="UTF-8"?>
<svg id="Layer_2" data-name="Layer 2" xmlns="http://www.w3.org/2000/svg" viewBox="0 0 27.84 22.12">
  <g id="_レイヤー_1" data-name="レイヤー 1">
    <g>
      <path d="M18.74,7.41c-1.61-.46-3.21-.47-4.75,0v1.52h4.75v-1.51Z" style="fill: none; stroke-width: 0px;"/>
      <path d="M26.83,10.49c-.13-.19-.21-.36-.21-.59,0-1.93,0-3.87,0-5.8,0-2.05-1.36-3.68-3.37-4.04-.24-.04-.48-.05-.72-.05C16.79,0,11.04,0,5.3,0,2.97,0,1.21,1.76,1.21,4.09c0,1.94,0,3.89,0,5.83,0,.23-.06.4-.2.56-.52.56-.84,1.24-.96,2.02,0,.05-.02.09-.04.13v.03s-.01,8.89-.01,8.89c.13.33.37.52.74.58h3.25c.63-.19.74-.34.74-1.01v-2.56h.11c3,.35,6.05.52,9.08.53h.13c3.03,0,6.03-.17,8.94-.49h.11s0,2.52,0,2.52c0,.68.1.82.74,1.01h3.26c.36-.06.6-.25.73-.58v-8.9c-.02-.08-.04-.17-.06-.26-.04-.2-.08-.38-.16-.55-.22-.45-.48-.9-.78-1.35ZM2.65,7.55c0-1.13,0-2.27,0-3.4,0-1.62,1.09-2.71,2.71-2.71,5.7,0,11.41,0,17.11,0,1.65,0,2.72,1.07,2.72,2.72v5.12s-1.84-.19-1.84-.19v-.6c0-.34,0-.69,0-1.03,0-.88-.4-1.4-1.24-1.64-1.88-.54-3.78-.53-5.66.02-.73.21-1.15.78-1.16,1.55,0,.37,0,.75,0,1.12v.62s-2.72,0-2.72,0v-1.27c0-.17,0-.34,0-.52-.01-.72-.42-1.27-1.1-1.48-1.96-.59-3.93-.59-5.87,0-.68.21-1.09.76-1.1,1.48,0,.38,0,.77,0,1.15v.6s-1.84.18-1.84.18v-1.73ZM21.89,7.26v1.86h-5.15v-1.87l.07-.02c1.62-.5,3.31-.5,5.01,0l.07.02ZM11.11,7.26v1.86h-5.16v-1.87l.07-.02c1.62-.5,3.31-.5,5.01,0l.07.02ZM1.6,12.29s.01-.05.02-.08c.01-.05.03-.1.05-.15.42-.87,1.11-1.36,2.05-1.46.11-.01.23-.01.34-.01h6.57c4.38,0,8.76,0,13.14,0h0c1.09,0,1.89.49,2.38,1.45.02.04.04.09.06.16,0,.03.02.06.03.09l.05.13H1.56l.04-.13ZM26.38,20.63h-1.83v-1.11c0-.57,0-1.13,0-1.7,0-.26-.08-.47-.23-.6-.15-.14-.37-.2-.63-.17-.56.05-1.12.1-1.68.16-1.25.12-2.53.25-3.8.3-2.41.1-4.75.12-6.95.06-1.41-.04-2.85-.15-4.23-.27-.55-.05-1.11-.09-1.67-.13-.3-.02-.61-.06-.9-.1l-.3-.04c-.24-.03-.46.03-.62.17-.15.14-.24.34-.24.57,0,.64,0,1.28,0,1.94v.92s-1.82,0-1.82,0v-6.72h24.92v6.73Z" style="fill: #000; stroke-width: 0px;"/>
    </g>
  </g>
</svg>