<?xml version="1.0" encoding="UTF-8"?>
<svg id="Layer_2" data-name="Layer 2" xmlns="http://www.w3.org/2000/svg" viewBox="0 0 24.22 22.68">
  <g id="_レイヤー_1" data-name="レイヤー 1">
    <path d="M12.64,22.68h-1.6c-.2-.02-.41-.04-.61-.05-2.11-.1-4.19-.37-6.22-1-.91-.29-1.79-.65-2.57-1.23-.73-.54-1.17-1.22-1.12-2.17.04-.68,0-1.36,0-2.04,0-.33-.02-.67.03-1,.09-.62.47-1.07.92-1.47.09-.08.16-.22.15-.33,0-.25-.07-.51-.07-.76,0-1.03.02-2.06.02-3.09,0-.08-.06-.19-.12-.23-.69-.44-1.23-1-1.46-1.82v-3.66c.19-.59.5-1.11,1.01-1.47.42-.29.85-.57,1.31-.78C4.17.74,6.14.4,8.14.18,8.95.1,9.76.06,10.57,0,11.11,0,11.64,0,12.17,0c.19.02.39.04.58.05,1.92.09,3.82.32,5.68.84,1.11.31,2.19.7,3.13,1.4.61.46,1.08,1.02,1.09,1.83,0,1.1-.02,2.2-.02,3.31,0,.1.06.23.13.28.68.44,1.2,1,1.44,1.8v3.66c-.17.52-.41,1-.86,1.34-.24.18-.34.36-.22.66.05.13.03.29.03.44,0,.93-.01,1.87,0,2.8.01.64-.2,1.21-.68,1.6-.5.41-1.05.8-1.64,1.08-1.83.87-3.81,1.2-5.81,1.41-.8.09-1.6.12-2.41.18ZM11.34,7.29c1.34-.11,2.69-.18,4.03-.34,1.55-.18,3.06-.53,4.5-1.17.56-.25,1.1-.54,1.5-1.02.36-.43.38-.85,0-1.24-.3-.3-.65-.58-1.02-.79-1.24-.69-2.59-1.02-3.97-1.26-3.29-.57-6.58-.57-9.87-.03-1.27.21-2.52.52-3.71,1.06-.56.25-1.1.54-1.49,1.03-.33.41-.34.81,0,1.2.18.21.4.41.64.56.89.6,1.91.93,2.94,1.19,2.12.54,4.28.73,6.47.8ZM2.66,9.93s-.05.04-.07.06c.11.17.19.37.33.5.32.27.65.55,1.02.74,1.57.83,3.29,1.17,5.03,1.4,2.6.34,5.2.34,7.8,0,1.58-.21,3.14-.53,4.61-1.18.58-.26,1.13-.55,1.54-1.06.25-.31.34-.65.13-1.01-.22-.37-.55-.63-.91-.83-.89.81-1.42,1.13-2.55,1.54-1.69.62-3.45.93-5.24,1.1-2.27.21-4.54.2-6.81-.08-1.67-.21-3.32-.54-4.89-1.18ZM2.28,14.43c-.92.61-.97,1.31-.1,1.98.36.28.77.51,1.19.7,1.34.61,2.76.92,4.2,1.13,2.75.4,5.51.41,8.27.04,1.55-.2,3.08-.53,4.52-1.17.57-.25,1.12-.55,1.52-1.04.17-.2.31-.42.24-.72-.05.01-.08.01-.1.03-1.29.61-2.66.96-4.06,1.2-3.47.58-6.94.57-10.4-.05-1.9-.34-3.75-.82-5.28-2.1ZM12.86,21.61v-2.03h-2.02v2.03h2.02ZM7.24,7.99v2.06c.68.07,1.34.13,2.02.2v-2.06c-.67-.07-1.34-.14-2.02-.2ZM15.44,10.05v-2.06c-.69.07-1.36.14-2.02.2v2.06c.68-.07,1.35-.14,2.02-.21ZM14.96,15.92c.65-.07,1.28-.14,1.91-.21.05,0,.12-.08.12-.12,0-.64,0-1.27,0-1.93-.7.07-1.37.14-2.04.21v2.06ZM7.75,21.37c.67.07,1.35.14,2.03.21v-2.06c-.68-.07-1.35-.13-2.03-.2v2.05ZM13.93,21.58c.66-.07,1.28-.13,1.9-.21.05,0,.13-.13.13-.2.01-.34,0-.69,0-1.03,0-.27,0-.54,0-.82-.71.07-1.37.14-2.04.21v2.06ZM8.76,13.65c0,.66,0,1.28,0,1.91,0,.05.08.14.13.15.63.08,1.26.14,1.91.21v-2.06c-.68-.07-1.35-.14-2.05-.21ZM18.54,7.37c-.49.11-.94.22-1.4.32-.65.13-.66.13-.66.79v1.41c.67-.17,1.29-.32,1.9-.49.06-.02.15-.11.15-.17.01-.62,0-1.23,0-1.87ZM4.13,7.37c0,.53,0,1.04,0,1.55,0,.54-.09.42.42.56.53.15,1.07.26,1.64.4,0-.68,0-1.29,0-1.91,0-.06-.08-.16-.14-.17-.62-.15-1.24-.28-1.91-.43ZM6.69,19.16c-.67-.15-1.34-.3-2.04-.46,0,.64,0,1.25,0,1.87,0,.06.07.14.13.16.62.17,1.25.32,1.9.48v-2.05ZM7.72,13.49c-.68-.15-1.35-.3-2.05-.46,0,.64,0,1.25,0,1.85,0,.06.06.16.11.17.63.17,1.27.33,1.93.49v-2.06ZM18.03,15.56c.68-.17,1.31-.33,1.93-.49.05-.01.12-.09.12-.13,0-.63,0-1.25,0-1.89-.67.15-1.3.28-1.93.43-.05.01-.12.1-.12.16,0,.62,0,1.24,0,1.93ZM17.02,21.21c.66-.17,1.3-.32,1.93-.49.05-.01.11-.09.11-.14,0-.62,0-1.23,0-1.88-.71.16-1.38.31-2.04.46v2.05ZM11.88,13.91v2.03h2.01v-2.03h-2.01ZM12.34,10.29v-2.04h-2.01v2.04h2.01ZM22.13,17.36c-.65.31-1.3.63-1.94.95-.05.02-.1.1-.1.15,0,.6,0,1.21,0,1.86.68-.28,1.29-.59,1.76-1.11.13-.15.26-.35.27-.54.04-.44.01-.89.01-1.31ZM21.61,6.04c-.64.31-1.28.62-1.92.94-.05.03-.12.09-.12.14,0,.61,0,1.23,0,1.88.65-.28,1.23-.55,1.68-1.03.16-.17.32-.39.34-.6.05-.45.02-.91.02-1.33ZM2.59,11.69c0,.35-.03.72.01,1.09.03.25.11.53.26.72.45.57,1.1.86,1.79,1.16,0-.65,0-1.25,0-1.84,0-.07-.07-.16-.13-.19-.63-.32-1.26-.62-1.92-.94ZM1.57,17.36c0,.4-.02.83,0,1.26.01.17.1.36.21.5.46.59,1.11.9,1.82,1.2,0-.64,0-1.23,0-1.83,0-.07-.07-.16-.13-.19-.63-.32-1.26-.62-1.91-.94ZM23.17,11.7c-.65.32-1.28.62-1.91.94-.06.03-.13.11-.13.16,0,.61,0,1.21,0,1.86.67-.28,1.28-.57,1.74-1.1.15-.18.27-.42.3-.65.05-.41.01-.82.01-1.21ZM1.05,6.03c0,.34-.04.71.01,1.07.04.27.12.57.29.77.44.54,1.07.84,1.75,1.12,0-.65,0-1.26,0-1.86,0-.06-.07-.13-.13-.16-.63-.31-1.26-.62-1.91-.94Z" style="fill: #000; stroke-width: 0px;"/>
  </g>
</svg>