<?xml version="1.0" encoding="UTF-8"?>
<svg id="Layer_2" data-name="Layer 2" xmlns="http://www.w3.org/2000/svg" viewBox="0 0 22.85 29.35">
  <g id="_レイヤー_1" data-name="レイヤー 1">
    <path d="M7.08,29.35c-1.97,0-3.64-.7-5.01-2.11-1.38-1.41-2.06-3.1-2.06-5.06s.7-3.65,2.1-5.05,3.07-2.1,5.01-2.1v1.72c-1.49,0-2.77.53-3.83,1.59-1.06,1.06-1.59,2.34-1.59,3.83s.53,2.77,1.59,3.83c1.06,1.06,2.35,1.59,3.86,1.59s2.8-.53,3.86-1.59c1.06-1.06,1.59-2.34,1.59-3.83h1.69c0,1.97-.71,3.65-2.13,5.06-1.42,1.41-3.11,2.11-5.08,2.11ZM21.17,27.66v-6.33c0-.22-.06-.39-.18-.52-.12-.13-.3-.19-.54-.19h-8.64c-1.13,0-2.02-.49-2.66-1.47-.64-.98-.72-1.99-.24-3.04l3.45-7.57h-4.26l-1.18,3.1-1.59-.54,1.12-3.04c.19-.5.46-.87.82-1.11s.8-.37,1.33-.37h6.54c.98,0,1.73.36,2.24,1.09.51.72.54,1.58.1,2.56l-3.73,8.08h6.63c.69,0,1.27.24,1.75.73.48.49.72,1.08.72,1.77v6.85h-1.69ZM18.18,5.39c-.76,0-1.39-.26-1.91-.78s-.78-1.16-.78-1.91.26-1.39.78-1.91c.52-.52,1.16-.78,1.91-.78s1.39.26,1.9.78c.51.52.76,1.16.76,1.91s-.25,1.39-.76,1.91c-.51.52-1.14.78-1.9.78Z" style="fill: #000; stroke-width: 0px;"/>
  </g>
</svg>