<?xml version="1.0" encoding="UTF-8"?>
<svg id="Layer_2" data-name="Layer 2" xmlns="http://www.w3.org/2000/svg" viewBox="0 0 21.73 26.39">
  <g id="_レイヤー_1" data-name="レイヤー 1">
    <path d="M3.16,26.39c-.22,0-.4-.07-.55-.22-.15-.15-.22-.33-.22-.55v-2.94c-.51-.22-1.03-.69-1.57-1.4-.54-.71-.81-1.53-.81-2.46V4.66C0,3.05.87,1.87,2.61,1.12,4.36.37,7.11,0,10.87,0s6.68.36,8.35,1.08,2.51,1.91,2.51,3.58v14.15c0,.93-.27,1.75-.81,2.46-.54.71-1.07,1.18-1.57,1.4v2.94c0,.22-.07.4-.22.55-.15.15-.33.22-.55.22h-.36c-.22,0-.4-.07-.55-.22s-.22-.33-.22-.55v-2.33H4.3v2.33c0,.22-.07.4-.22.55-.15.15-.33.22-.55.22h-.36ZM10.88,3.94h9.17H1.71h9.17ZM17.08,13.97H1.55h18.63-3.1ZM1.55,12.42h18.63v-6.93H1.55v6.93ZM5.44,19.58c.48,0,.89-.17,1.22-.51.33-.34.5-.75.5-1.23s-.17-.89-.51-1.22c-.34-.33-.75-.5-1.23-.5s-.89.17-1.22.51c-.33.34-.5.75-.5,1.23s.17.89.51,1.22c.34.33.75.5,1.23.5ZM16.31,19.58c.48,0,.89-.17,1.22-.51.33-.34.5-.75.5-1.23s-.17-.89-.51-1.22c-.34-.33-.75-.5-1.23-.5s-.89.17-1.22.51c-.33.34-.5.75-.5,1.23s.17.89.51,1.22c.34.33.75.5,1.23.5ZM1.71,3.94h18.34c-.27-.8-1.1-1.4-2.49-1.79-1.39-.4-3.62-.6-6.68-.6s-5.27.2-6.66.6c-1.39.4-2.23,1-2.52,1.78ZM4.66,21.73h12.42c.85,0,1.58-.3,2.19-.91s.91-1.34.91-2.19v-4.66H1.55v4.66c0,.85.3,1.58.91,2.19.61.61,1.34.91,2.19.91Z" style="fill: #000; stroke-width: 0px;"/>
  </g>
</svg>