<?xml version="1.0" standalone="no"?>
<!DOCTYPE svg PUBLIC "-//W3C//DTD SVG 20010904//EN"
 "http://www.w3.org/TR/2001/REC-SVG-20010904/DTD/svg10.dtd">
<svg version="1.0" xmlns="http://www.w3.org/2000/svg"
 width="192.000000pt" height="192.000000pt" viewBox="0 0 192.000000 192.000000"
 preserveAspectRatio="xMidYMid meet">
<metadata>
Created by potrace 1.14, written by Peter Selinger 2001-2017
</metadata>
<g transform="translate(0.000000,192.000000) scale(0.100000,-0.100000)"
fill="#000000" stroke="none">
<path d="M1645 1693 c-48 -25 -73 -53 -91 -99 -15 -41 -15 -45 0 -69 20 -30
56 -46 111 -50 46 -3 88 16 127 56 47 48 51 144 7 166 -33 18 -118 15 -154 -4z"/>
<path d="M1892 1561 c0 -17 -6 -39 -12 -50 -6 -12 -8 -21 -5 -21 3 0 -7 -14
-22 -31 -75 -84 -198 -91 -282 -15 l-24 21 17 -32 c20 -39 69 -78 116 -91 113
-30 240 66 240 181 0 62 -26 97 -28 38z"/>
<path d="M567 1394 c-1 -1 -27 -4 -58 -7 -240 -26 -445 -232 -484 -489 -11
-69 -8 -500 4 -528 44 -107 177 -137 263 -60 41 37 47 78 48 324 2 266 7 297
66 359 68 72 97 80 285 80 161 1 167 0 210 -25 49 -29 89 -70 115 -120 16 -29
19 -65 21 -283 1 -137 4 -258 6 -267 5 -28 45 -76 76 -92 34 -18 85 -23 128
-12 38 9 102 76 104 109 1 12 3 130 4 262 1 233 -8 333 -34 382 -5 10 -20 39
-32 66 -12 26 -26 47 -31 47 -4 0 -8 6 -8 14 0 8 -33 45 -72 82 -78 72 -170
121 -267 144 -40 10 -335 21 -344 14z"/>
<path d="M1748 1235 c-1 -1 -24 -5 -50 -7 -60 -6 -114 -46 -140 -104 -18 -41
-19 -66 -16 -392 l3 -349 27 -40 c68 -103 221 -109 303 -12 44 52 45 65 45
413 0 358 -1 370 -53 428 -21 24 -110 71 -119 63z"/>
<path d="M619 973 c-42 -17 -89 -83 -90 -128 0 -16 -1 -127 -1 -245 -1 -175 2
-221 15 -245 20 -41 48 -64 94 -80 36 -12 45 -12 105 1 30 6 97 75 99 102 1 9
3 121 4 247 2 249 -2 275 -52 321 -26 24 -82 45 -118 43 -11 -1 -36 -8 -56
-16z"/>
</g>
</svg>
